<?xml version="1.0" encoding="utf-8"?>
<!-- Generator: Adobe Illustrator 26.2.1, SVG Export Plug-In . SVG Version: 6.00 Build 0)  -->
<svg version="1.1" id="Layer_1" xmlns="http://www.w3.org/2000/svg" xmlns:xlink="http://www.w3.org/1999/xlink" x="0px" y="0px"
	 viewBox="0 0 1900 700" style="enable-background:new 0 0 1900 700;" xml:space="preserve">
<style type="text/css">
	.st0{fill:#0D081E;}
	.st1{fill:#FFFFFF;}
	.st2{fill:#060015;}
</style>
<path class="st0" d="M18,714h1999.5c0,0-242.5-671.7-892.1-416.5C469.6,555.2,337,14,337,14H18V714z"/>
<path class="st1" d="M152.1,248.9c0.2-1.6,0.5-3.5-1.6-5c-0.2-0.2-0.8-0.4-1.3-0.6c-2.3-0.7-4,0.7-5.2,2.5c0.3-2.1,0.5-4.7,0-7.3
	c0,0,0,0,0.1,0l0,0c0,0,0.1,0,0.1,0.1h0.1c0,0,0.1,0.1,0.2,0.1c0,0,0.1,0,0.1,0.1c0.1,0,0.1,0.1,0.2,0.1c0.1,0,0.1,0,0.2,0.1
	c0.1,0,0.1,0.1,0.2,0.1c0.1,0,0.1,0.1,0.2,0.1s0.2,0.1,0.2,0.1c0.1,0,0.2,0,0.2,0.1c0.1,0,0.2,0,0.2,0.1c0.1,0,0.2,0,0.2,0.1
	c0.1,0,0.2,0,0.2,0.1c0.1,0,0.2,0,0.2,0c0.1,0,0.2,0,0.2,0c0.1,0,0.2,0,0.2,0c0.1,0,0.2,0,0.2,0h0.2h0.2l0.2-0.1l0.2-0.1
	c0.1,0,0.2-0.1,0.2-0.1c0.1,0,0.2-0.1,0.2-0.2c0.1-0.1,0.2-0.1,0.2-0.2s0.2-0.1,0.2-0.2s0.2-0.2,0.2-0.2c0.1-0.1,0.2-0.2,0.2-0.2
	c0.1-0.1,0.2-0.2,0.2-0.3c0.1-0.1,0.1-0.1,0.2-0.2l0,0c0.1-0.1,0.2-0.2,0.2-0.3c0,0-2.2,1.6-4.4-1.2c0,0,0.8,0.2,1.7-0.2l0,0
	c0,0,0.1,0,0.1-0.1c0,0,0.1,0,0.1-0.1c0.1,0,0.2-0.1,0.2-0.1c0.1,0,0.1-0.1,0.2-0.1c0.1,0,0.1-0.1,0.2-0.1c0.1-0.1,0.1-0.1,0.2-0.2
	c0.1,0,0.1-0.1,0.2-0.2c0.1-0.1,0.2-0.1,0.2-0.2c0,0,0.1-0.1,0.1-0.2c0.2-0.2,0.3-0.4,0.4-0.6c0,0,0-0.1,0.1-0.1
	c0-0.1,0.1-0.2,0.1-0.2c0.1-0.1,0.1-0.2,0.2-0.3c0-0.1,0.1-0.1,0.1-0.2c0.1-0.1,0.1-0.2,0.2-0.4l0,0c0-0.1,0-0.1,0.1-0.2
	c0,0-0.7,1.1-2.7,0.7c-2-0.3-4.4-1.9-9.4-5.9c-4.8-3.9-16.6-8.7-26.3-3.4c-0.2-0.6-0.7-1-1.3-1.2c-0.6-0.2-1.2,0-1.7,0.3
	c-0.8,0.7-1.4,1.7-1.7,2.5c0.1-5.1,0.3-9.8,0.9-14.2c0.1-0.4,0.2-0.9,0.2-1.3c0.6-0.1,3.2-0.6,4.1-2.2c0.3-0.6,0.4-1.2,0.2-1.8
	c-0.2-0.5-0.6-0.9-1.1-1c-0.5-0.2-1.1,0.1-1.5,0.5c-0.5,0.5-0.9,1.3-1.2,2.1c0.9-5.3,2.4-10.3,4.3-14.8c3.9-9,6.9-11.8,9.4-13.4
	c0.2-0.1,0.2-0.3,0.2-0.5s-0.2-0.3-0.3-0.4c-0.1,0-0.1,0-0.2,0c-3.7,0.7-6.6,4.4-8,6.6c-1.6,2.5-3,5.3-4.4,8.6
	c0-0.3-0.1-0.7-0.1-0.9c-0.2-0.9-0.7-1.6-1.6-1.8c-0.6-0.2-1.2,0-1.6,0.4c-0.6,0.4-0.9,1.1-1,2c-0.2,2.1,1.7,4.4,2.5,5.3
	c-1.2,4.1-2.1,8.3-2.5,12.5c-0.1-0.3-0.2-0.7-0.2-1c-0.3-0.7-0.8-1.2-1.5-1.4s-1.3,0-1.8,0.5c-0.6,0.5-0.8,1.3-0.7,2.2
	c0.2,2.5,3.3,4.7,3.8,5c-0.3,4.1-0.4,8.2-0.4,12.2c-0.2-0.6-0.4-1.2-0.7-1.6c-0.2-0.4-0.7-0.7-1.1-0.8c-0.6-0.2-1.2,0.1-1.6,0.6
	c-0.5,0.6-0.6,1.3-0.3,2.1c0.5,1.7,2.5,2.8,3.5,3.2c0,0,0,0.1-0.1,0.1c-0.1,0.2-0.2,0.4-0.3,0.7c-0.2,0.2-0.2,0.5-0.4,0.7
	c-0.1,0.2-0.2,0.4-0.3,0.7c-0.1,0.2-0.2,0.6-0.3,0.8c-0.1,0.2-0.2,0.4-0.2,0.7c-0.1,0.2-0.2,0.6-0.3,0.8c-0.1,0.2-0.2,0.4-0.2,0.7
	c-0.1,0.3-0.2,0.6-0.2,0.9c-0.1,0.2-0.1,0.4-0.2,0.7s-0.2,0.7-0.2,1c0,0.2-0.1,0.4-0.1,0.7c-0.1,0.3-0.1,0.7-0.1,1
	c0,0.2-0.1,0.4-0.1,0.6c0,0.4,0,0.7,0,1.2c0,0.2,0,0.3,0,0.5c0,0.6,0.1,1.1,0.2,1.6c0.4,3.1,1.6,6.2,3.3,9c-0.2-0.2-0.4-0.2-0.7-0.3
	c-0.6-0.2-1.2,0.1-1.6,0.6c-0.5,0.6-0.6,1.4-0.3,2.2c0.7,2.2,4,3.3,4.2,3.3h0.1c0.2,2.4,0.5,4.8,0.7,7.2c-1,1.2-1.4,1.8-2.5,2.2
	c-1.5,0.6-3.8-1.2-5.3-2.7s-1.7-3.1-1.7-3.1s-0.2,0.2-0.4,0.6c-0.1-0.2-0.2-0.4-0.2-0.7c0-0.2-0.1-0.2-0.1-0.4
	c0-0.2-0.1-0.2-0.1-0.4c-0.2-1.1-0.5-1.9-1.6-3.4c-0.1-0.2-1-1.6-1.5-2.4c-0.1-0.2-0.2-0.4-0.2-0.6c-0.2-0.6-0.6-1.2-1.9-2.2
	c-1.1-0.8-1.9-1.3-2.6-1.5s-1.3-0.1-1.7,0.4c-0.2,0.2-0.2,0.4-0.2,0.6c0.1,0.5,0.5,0.9,1.3,1.3c0.7,0.4,1.5,1,2.1,1.6
	c0.1,0.1,0.2,0.2,0.3,0.5c-0.3-0.3-0.7-0.7-1.1-0.9c-0.8-0.7-1.9-1.4-2.7-1.6c-0.1,0-0.2,0-0.2-0.1c-0.7-0.1-1.5,0.2-1.8,0.6
	c-0.2,0.2-0.2,0.5-0.2,0.7c0.1,0.8,0.9,1,1.2,1.1c0.2,0.1,0.4,0.1,0.7,0.1h0.1c0.4,0.1,1,0.6,1.5,1.1c-0.5-0.2-1.2-0.4-1.5-0.5
	c-0.2,0-0.2-0.1-0.3-0.1c-0.4-0.1-1.5,0.2-2,0.7c-0.2,0.3-0.3,0.7-0.2,1.2c0.1,0.4,0.9,0.7,1.5,0.9h0.1c0.2,0,0.3,0.1,0.6,0.1
	c0.2,0.1,0.4,0.1,0.7,0.2c-0.6,0.2-1.2,0.6-1.5,0.7c-0.2,0.2-0.5,0.5-0.6,0.8c-0.1,0.2,0,0.6,0.2,0.8c0.1,0.2,0.3,0.3,0.6,0.4
	c0.4,0.1,1,0,1.5-0.1c0.7-0.2,1.4-0.2,2,0c0.1,0,0.2,0,0.2,0.1c0.4,0.2,0.4,0.2,0.5,0.7c0,0.2,0,0.2,0.1,0.5c0,0.1,0,0.2,0.1,0.2
	c0.2,0.8,0.4,2.2,1.5,3c0.2,0.2,0.6,0.3,0.9,0.4c0.8,0.2,1.6-0.1,2.1-0.2H94l0,0c0.2,0.1,0.8,0.4,1.6,1.3c0.7,0.8,4.5,4.4,7.6,5.3
	c-0.6,0.8-1,1.6-1.3,2.6c-0.7-0.7-1.2-1-1.3-1.1c-0.7-0.7-1.6-1.2-2.1-1.4c-1.5-0.4-3,1.6-4.3,3.5l0,0c-0.1,0.2-0.2,0.2-0.2,0.4
	c-0.1,0.2-0.2,0.2-0.2,0.4c0,0-0.3-0.2-0.8-0.6l0,0c-1.3-0.9-4.1-2.5-8.1-3.3c-5.5-1.2-7.2,0.1-9,0.1s-2.1-0.3-2.4-0.6
	c-0.2-0.2-0.5,1,0.9,1.6c0,0-0.5-0.1-0.8-0.1h-0.1c-0.1,0-0.2-0.1-0.3-0.1c-0.1,0-0.2-0.1-0.3-0.1h-0.2h-0.2
	c-0.4-0.1-0.8-0.2-1.2-0.4c-1.2-0.7-1.7-2.1-2.2-3.5l-0.1-0.2l-0.1-0.1c-0.3-0.9-0.7-2-1.4-2.7c0.2-1,0.2-2,0-2.8
	c-0.2-0.7-1-1.4-1.6-1.6c-0.2,0-0.2-0.1-0.4-0.1c-0.7,0-1.2,0.5-1.4,1.3c-0.4,0-0.7,0.2-0.8,0.5c-0.1,0.2-0.2,0.3-0.2,0.6
	c-0.2,0-0.5,0.1-0.7,0.2c-0.2,0.2-0.2,0.3-0.2,0.7c-0.2,0-0.3,0.1-0.4,0.2c-0.2,0.2-0.2,0.5-0.2,0.8c-0.2,0.1-0.3,0.2-0.4,0.3
	c-0.2,0.3-0.2,0.7,0,1.2c0.2,0.4,0.7,1,1.2,1.2c0,1.8,1.2,3.3,2.3,4.5c0.2,0.3,0.5,0.6,0.7,0.9c0.6,0.7,1,1.6,1.4,2.5
	c0.3,0.7,0.7,1.5,1.2,2.1c0.7,1.2,1.6,2,2.5,2.1c0.3,0.1,0.7,0.1,1.1,0c1-0.2,1.5-0.7,1.7-1.7c0.2-0.4,0.2-0.7,0.5-0.9
	c0,0.3,0.7-0.2,1.2-0.4c0.1,0,0.2,0,0.2-0.1c0,0.2-0.7,1,0,1.5c0,0,0.5-0.8,3-1.2c2.5-0.5,8.1-1.2,12.5,4.5
	c-0.2,0.2-0.4,0.4-0.6,0.6l0,0c-0.2,0.2-0.5,0.3-0.7,0.3c0,0,0,0,0.1,0.1l0,0c0,0,0,0,0.1,0c0,0,0.1,0.1,0.2,0.1l0,0
	c0.1,0,0.1,0,0.2,0c0,0,0,0,0.1,0c0,0,0,0,0.1,0c-0.1,0.1-0.2,0.2-0.3,0.2c-0.4,0.2-0.8,0.2-1.3,0.1c-0.4-0.1-0.9-0.3-1.4-0.7
	c-0.2-0.2-0.6-0.4-0.9-0.7c-0.7-0.5-1.5-1.1-2.3-1.3c-0.2-0.5-0.4-1.1-0.7-1.6c-0.2-0.2-0.6-0.7-1.2-0.8c-0.1,0-0.2-0.1-0.3,0
	c-0.3,0-0.7,0.2-0.8,0.6c-0.1-0.1-0.2-0.1-0.2-0.1c-0.5-0.2-1,0.1-1.2,0.4c-0.1,0.1-0.1,0.2-0.2,0.3c-0.5-0.1-0.9,0.2-1.1,0.6
	c-0.2,0.1-0.6,0.3-0.7,0.6c-0.1-0.1-0.2-0.1-0.3-0.2c-0.5-0.1-0.9,0.1-1.3,0.5c-0.5,0.6-0.7,1.4-0.5,2.1c0.3,1.2,1.2,2.1,2.2,2.5
	c0.2,0.1,0.2,0.1,0.4,0.1c0.2,0.1,0.5,0.1,0.7,0.1c0.7,1.5,2.9,2.1,4.4,2.6c0.3,0.1,0.6,0.2,0.8,0.2c1.6,0.6,3,1.2,4.6,2
	c0.7,0.3,1.5,0.7,2.2,0.9c0,0,0.1,0,0.1,0.1c0.3,0.2,0.7,0.2,1,0.3c1.2,0.3,2.4,0.2,3.1-0.4c0.5-0.4,0.7-0.9,0.8-1.6
	c0.1-0.7-0.1-1.5-0.2-2.1c0.4,0.6,1,1.2,1.6,1.8c0,0,2.8,3.3,8,4.4c-0.7,1.3-1.6,2.5-2.5,3.7c-2.1,2.6-4.9,4.7-6.9,6.2
	c-1.2,0.9-2.6,1.9-4.3,3c0.7-0.8,1.5-1.8,1.8-2.9c0.2-0.7,0.2-1.4-0.1-1.9c-0.2-0.5-0.7-0.9-1.3-1.1c-0.9-0.2-1.7,0.2-2.4,1.1
	c-1.3,1.9-0.6,5.4-0.4,6.3c-0.7,0.5-1.5,1.1-2.1,1.8c-0.5,0.6-1,1.3-1.5,2.1c-0.4,0.7-0.7,1.4-1.2,2.3c-0.3,0.9-0.7,1.8-0.8,2.9
	c-0.1-0.7-0.2-1.2-0.5-1.8c-0.2-0.5-0.7-0.8-1.2-1s-1.1,0-1.5,0.5s-0.7,1.2-0.5,1.9c0.3,1.9,2.7,3.3,3.3,3.6c0,2.8,0.8,5.3,2.3,7.1
	c0.5,0.6,1.9,2.1,3.6,2.5c0.7,0.2,1.2,0.2,1.8,0c1.8-0.6,3-2.3,3.1-4.3c0-1.7-0.7-2.9-1.8-3.2c-0.3-0.1-0.7-0.1-1.2,0
	c-0.7,0.2-1.6,0.9-1.8,1.7c-0.2,0.5-0.1,1,0.1,1.4c0.1,0.7,0.5,1.2,1.1,1.3c0.1,0,0.2,0,0.3,0c0.4,0.1,0.8-0.1,1.1-0.5
	c0.1-0.2,0.2-0.3,0.2-0.5c0,0.2-0.1,0.4-0.2,0.6c-0.4,1.1-1.3,1.5-2.3,1.2c-0.3-0.1-0.7-0.2-0.9-0.4c-3.1-2.2-3.2-6.2-2.7-9.3
	c0.2-0.9,0.4-1.7,0.7-2.5c0.1,0,0.2,0.1,0.2,0.1c1.1,0.2,3.5,0.7,4.8-0.2c0.5-0.4,0.7-1,0.7-1.6c-0.2-0.7-0.8-1.4-1.6-1.6
	c-0.3-0.1-0.7-0.1-1.1,0c-0.6,0.2-1.2,0.6-1.6,1c2-2.6,5-4.4,7.9-6.2c1.6-1,3.2-1.9,4.6-3c3.8-3,6.7-6.4,8.5-10.2
	c1.6-0.1,3.2-0.3,5-0.9c-0.7,1.9-1.3,3.9-1.4,5.8c-0.2,3.5,0.4,6.9,2.3,9.9c3.5,5.7,11.5,5.5,16.4,2.5c0.3-0.2,0.6-0.4,0.8-0.6
	c0.1-0.1,0.2-0.2,0.2-0.2c0.2-0.2,0.4-0.3,0.6-0.5c0.1-0.1,0.2-0.2,0.2-0.2c0.2-0.2,0.5-0.5,0.7-0.7l0.1-0.1
	c0.2-0.2,0.4-0.5,0.6-0.8c0.1-0.1,0.2-0.2,0.2-0.3c0.2-0.2,0.2-0.4,0.4-0.7c0.1-0.1,0.1-0.2,0.2-0.3c0.2-0.3,0.3-0.7,0.5-1l0,0
	c0.3-0.7,0.6-1.6,0.7-2.4c0.4-1.9,0.1-3.9-0.4-5.8c-0.3-1.5-0.7-3-1-4.4c-0.1-0.3-0.2-0.7-0.2-1.1c0-0.1,0-0.2,0-0.2
	c-0.1-0.4-0.1-0.8-0.2-1.2c-0.2-3.6,0.6-8.4,3.4-10.7c2.8-2.3,10.2-2.5,10.4,2.5c0.1,1.6-0.3,4.1-1.2,5.4c-0.7,1.1-1.7,2-3,1.8
	c-0.6-0.1-1.9-1.6-0.7-1.8c0.2,0,0.2-0.1,0.4-0.1c0,0,0.1,0,0.1-0.1c0.1-0.1,0.2-0.1,0.2-0.2c0,0,0.1,0,0.1-0.1
	c0.1-0.1,0.2-0.2,0.2-0.2l0,0c0.1-0.2,0.2-0.3,0.2-0.5c0-0.1,0-0.1,0-0.2c0.3-1.2-0.8-2-1.8-1.8c-0.5,0.1-1.1,0.3-1.6,0.7
	c-0.1,0.1-0.2,0.1-0.2,0.2c-0.1,0-0.1,0.1-0.2,0.1c-0.1,0.1-0.2,0.2-0.3,0.3l-0.1,0.1c-0.1,0.1-0.2,0.2-0.2,0.3c0,0,0,0.1-0.1,0.1
	c-0.1,0.2-0.2,0.2-0.2,0.4v0.1c-0.1,0.2-0.1,0.3-0.1,0.5c-0.2,2,0.7,3.2,2.1,4.3c3.1,2.5,6.7-0.9,7.9-3.9c0.2-0.3,0.2-0.6,0.3-0.9
	l0,0l0,0c1-3.2,0.3-6.9-2.1-9.2c-2.5-2.4-6.2-2.5-9.1-1.6c-1.5,0.4-2.7,1.2-3.8,2.3c0,0,0-0.1,0.1-0.1c-0.1,0.1-0.1,0.1-0.2,0.2
	c-0.2,0.2-0.5,0.6-0.7,0.9c0,0.1-0.1,0.1-0.2,0.2c-0.2,0.3-0.5,0.7-0.7,1.2c-0.1,0.1-0.1,0.2-0.2,0.2c-0.2,0.3-0.3,0.7-0.5,1.1
	c0,0.1-0.1,0.2-0.1,0.2c-0.2,0.4-0.3,0.9-0.5,1.3c0,0.1-0.1,0.2-0.1,0.2c-0.1,0.4-0.2,0.8-0.3,1.2c0,0.1-0.1,0.2-0.1,0.3
	c-0.1,0.5-0.2,0.9-0.2,1.4c0,0.1,0,0.1,0,0.2c-0.1,0.4-0.1,0.8-0.1,1.2c0,0.1,0,0.2,0,0.3c0,0.4,0,0.9,0,1.3c0.1,1.8,0.4,3.7,1,5.4
	c0.7,2.1,1.2,4.1,1.3,6.3c0,0.2,0,0.5,0,0.7c0,0.1,0,0.2-0.1,0.3c0,0.2-0.1,0.2-0.1,0.4c0,0.1-0.1,0.2-0.1,0.3s-0.1,0.2-0.1,0.3
	s-0.1,0.2-0.1,0.3c-0.1,0.1-0.1,0.2-0.2,0.3c-0.1,0.1-0.1,0.2-0.2,0.3c-0.1,0.2-0.2,0.2-0.2,0.4c0,0.1-0.1,0.2-0.1,0.2
	c-0.4,0.7-0.8,1.3-1.2,1.9c-2.8,3.6-8.3,4.3-12.1,2.1c-3.8-2.1-5-5.8-4.8-9.9l0,0c0-0.4,0.1-0.8,0.1-1.2c0-0.1,0-0.2,0-0.2
	c0.1-0.3,0.1-0.7,0.2-1c0-0.1,0-0.2,0.1-0.3c0.1-0.3,0.2-0.7,0.2-1c0-0.1,0-0.2,0.1-0.2c0.1-0.4,0.2-0.8,0.3-1.2
	c0.2-1,0.7-1.9,1-2.8c1.9-1.4,3.7-3.8,4.5-7.9c0.2,0.1,0.5,0.2,0.7,0.2c1,0.3,2.7,0.7,4.4,0.1c0.2-0.1,0.3-0.2,0.5-0.3l0,0l0,0
	c2-1.6,2.4-7.4,0.8-12.3c-0.5-1.5-1-2.9-1.6-4.1c5.6,1,13.1-0.1,18.1-7.9c0.6-0.2,4.3-1.7,5.8-5c0.6-1.3,0.8-2.1,0.7-2.6
	c-0.1-0.2-0.2-0.3-0.3-0.4c-0.3-0.2-0.9,0-1.4,0.2c-0.1-0.2-0.2-0.5-0.2-0.9C150.6,253.8,151.8,250.9,152.1,248.9z M110.7,262.8
	c-0.4,0.5-0.7,1.1-1.1,1.6c-0.1-1-0.2-1.9-0.3-2.9C109.8,261.8,110.2,262.3,110.7,262.8z M107.5,227.8c-0.1,0.1-0.2,0.2-0.2,0.2
	c-0.2,0.2-0.3,0.3-0.5,0.6l0,0c0-0.2,0-0.5,0-0.7C107,227.9,107.2,227.9,107.5,227.8z M105.6,257c0,0.2,0,0.4,0.1,0.6
	c-0.1-0.3-0.2-0.7-0.3-1C105.4,256.8,105.5,256.9,105.6,257z"/>
<path id="XMLID_11584_" class="st2" d="M-3.6,0h328.8c-7.2,27.7-32.4,69.4-36.5,81.2c-6.5,18.4-10.4,34.2-37.5,22.4
	C223.9,91.7,144,81.2,126.5,83.9S87,82.6,56,64.2C44.9,57.5,5.7,54.4-3.7,53C-3.5,39.5-3.6,13.5-3.6,0z"/>
<path class="st1" d="M116.4,199.2l41.7-66.2c0,0,3.3-2.8,1.3,1s-37.1,59.9-37.1,59.9L116.4,199.2z"/>
<path class="st1" d="M144.9,153.1l41.7-66.2c0,0,3.3-2.8,1.3,1s-37.1,59.9-37.1,59.9L144.9,153.1z"/>
<g>
	<path class="st1" d="M819,503.5c0,0,0.6-3,1.9-5c1.3-2.1,2-3.1,2.4-2.7c0.3,0.4,0.2,1.5,0.2,1.9c0.1,0.4,0.7,0.3,1.3-0.2
		c0.6-0.6,1.3-1.5,2.1-1.5c0.8-0.1,1.5,0.3,1.6,0.2c0.2-0.1,0.6-0.2,0.7,0c0.2,0.2-0.7,0.4-0.9,1.1c-0.2,0.7-0.2,1.3-0.2,1.3
		s0.8-1.4,1.6-0.5c0.7,0.9,1,1.5,2.1,2.6s6.8,8.1,7.8,9.8c1,1.7-0.7,0.6-1.2,0.1c-0.6-0.5-5.6-0.4-8.5-4c-1.1-1.4-4,0.8-5.1,0.3
		c-1.1-0.4-2.2-0.8-2.5-0.9c-0.3-0.1-2.3,3.3-2.7,4.9c-0.4,1.6-2.2-0.1-2.4-2.5c-0.3-2.4-0.1-2.8,0.2-2.8c0.3-0.1,1.8-0.5,2.6-1.1
		s0.3-1,0.2-0.9C819.7,503.5,819.1,504,819,503.5z"/>
	<path class="st1" d="M898.8,558c0,0,0.3-2.6,1.3-4.5c1-1.8,1.6-2.8,1.8-2.6c0.3,0.3,0.2,1.3,0.3,1.6c0.1,0.3,0.7,0.2,1.1-0.3
		c0.4-0.6,1.1-1.4,1.7-1.5c0.7-0.2,1.2,0.1,1.4,0c0.2-0.1,0.4-0.3,0.6-0.1s-0.6,0.4-0.7,1s-0.2,1-0.2,1s0.7-1.3,1.3-0.6
		c0.7,0.6,0.9,1.1,1.9,1.9c1,0.9,6.1,6,7,7.3c0.9,1.4-0.5,0.5-1,0.2s-4.7,0.3-7.3-2.5c-1-1-3.3,1.1-4.2,0.9s-2-0.3-2.2-0.4
		s-1.8,3-2,4.5c-0.2,1.4-1.8,0.2-2.2-1.8c-0.3-2-0.2-2.4,0.1-2.5c0.2-0.1,1.5-0.7,2.1-1.3c0.7-0.6,0.2-0.9,0.1-0.8
		C899.4,558,898.9,558.5,898.8,558z"/>
	<path class="st1" d="M787.1,535.3c0,0,0.2-1.7,0.9-3s1.1-1.9,1.2-1.7c0.2,0.3,0.2,0.9,0.2,1.1c0.1,0.2,0.4,0.2,0.7-0.2
		c0.3-0.3,0.7-0.9,1.1-1s0.8,0.1,1,0c0.1-0.1,0.3-0.2,0.4-0.1c0.1,0.1-0.3,0.3-0.5,0.7c-0.1,0.4-0.1,0.8-0.1,0.8s0.4-0.9,0.9-0.4
		c0.5,0.4,0.6,0.8,1.3,1.3c0.7,0.6,4.1,4,4.7,5c0.6,0.9-0.3,0.3-0.7,0.1c-0.4-0.3-3.2,0.2-5-1.6c-0.7-0.7-2.2,0.8-2.9,0.6
		s-1.3-0.3-1.5-0.3s-1.2,2.1-1.3,3c-0.2,0.9-1.2,0.2-1.5-1.2c-0.2-1.4-0.2-1.6,0.1-1.6c0.2-0.1,1.1-0.4,1.5-0.9
		c0.4-0.4,0.2-0.6,0.1-0.4C787.5,535.1,787.1,535.4,787.1,535.3z"/>
	<path class="st1" d="M797,562.2c0,0,3-2.9,4.4-3.1c1.4-0.2,2.4-0.1,2.2,0.8c-0.2,0.9-0.4,3.4,0.1,4.2c0.4,0.9,0.4,1.4,1.1,0.3
		c0.7-1,0.9-2.6,1.4-1.9c0.5,0.8,0.2,1.6,0.8,1.4c0.6-0.3,0.6-0.3,0.8-0.3c0.2,0.1,0.4-0.2,0.7-0.3c0.2-0.1-0.3,0.4-0.4,0.7
		c-0.1,0.3-0.3,1.6-0.6,2.3c-0.3,0.6-0.4,1.4-0.4,1.4s0.5,1.9,1.2,4.6s1.1,4,0,2.7c-1.1-1.4-0.7-1.5-1.6-2.2c-1-0.8-1.6-1.8-1.8-2.4
		c0,0-1.7,1.4-2.4,1.1c-0.7-0.2-1,1.1-1.6,1.9c-0.7,0.8-1.4,1-2.4-0.5s-0.3-2.8-0.1-3.1c0.3-0.2,1.5-0.2,2-0.5
		c0.6-0.3,1.1-1.4,0.4-1.3c-0.7,0.2-1.6-2.5-1.3-3.3c0.3-0.9,0.9-2.6,0.2-2.6C799.1,562,797.4,562.9,797,562.2z"/>
	<path class="st1" d="M894.3,471.7c0,0,1.4-1.1,2-1.1s1.1,0.1,1,0.4s-0.2,1.5-0.1,1.9c0.2,0.4,0.2,0.6,0.4,0.2
		c0.3-0.4,0.4-1.1,0.7-0.8c0.2,0.3,0.1,0.8,0.3,0.7c0.2-0.1,0.2-0.1,0.3-0.1c0.1,0,0.2-0.1,0.3-0.1c0.1,0-0.2,0.2-0.2,0.3
		c-0.1,0.1-0.2,0.8-0.3,1c-0.2,0.3-0.2,0.6-0.2,0.6s0.2,0.9,0.4,2.1c0.2,1.2,0.4,1.8-0.1,1.1c-0.5-0.7-0.2-0.7-0.7-1.1
		c-0.4-0.4-0.7-0.9-0.7-1.1c0,0-0.8,0.5-1.1,0.3s-0.4,0.4-0.7,0.8c-0.3,0.3-0.7,0.3-1-0.3c-0.3-0.8-0.1-1.3,0.1-1.4s0.7,0,0.9-0.1
		c0.2-0.1,0.6-0.5,0.2-0.5c-0.3,0-0.7-1.1-0.5-1.5s0.4-1,0.1-1.1C895.2,471.8,894.4,472.1,894.3,471.7z"/>
	<path class="st1" d="M840.3,461.8c0-0.2-0.2-5.7-1-7.5s-3.8-6.9-5.3-9.5s-3.3-5.2-3.6-4.8c-0.3,0.3,1.6,3.4,1.6,5.4
		c0.1,2,0.5,4.1,0.8,5.7c0.3,1.5,1.3,2.8,1.2,4c-0.1,1.3,0.1,3.8,0.9,7.7c0.8,3.8,1.3,6.3,1.4,8.2s0.1,2.7-1.2,2.2
		c-1.3-0.4-3.2-1.6-3.6-1.1c-0.4,0.4-0.7,4.8,0.4,6c1.1,1.3,3.6,1.6,4.7,1.5s0.6-3.3,1.1-3.4c0.6-0.1,2.7,0.3,5.3-1.6
		c2.6-2,2.9-3.4,3.2-3.7c0.3-0.3,0.6-0.7,0.3-0.8c-0.2,0-0.2,0.2-0.9-0.3c-0.7-0.6-1.6-0.6-2-0.6c-0.3,0.1-0.7-0.9,0.1-2.4
		c0.8-1.5,2.3-3.5,2-5.8c-0.3-2.2-0.8-6.4-1.2-8.3c-0.4-1.9-1.3-3.3-1.6-2.8c-0.3,0.4,0.5,1.9,0.2,4.2c-0.3,2.2-2.1,5.5-2.4,7.1
		C840.5,462.4,840.3,463,840.3,461.8z"/>
	<path class="st1" d="M825.9,551c0.2-0.2,1-0.8,1.5-0.8s0.7,0.2,1,0.4c0.2,0.2,0.4,0.3,0.6,0.3s0,0.2-0.2,0.3
		c-0.2,0.2-0.4,0.9-0.8,1.5c-0.4,0.5-1.5,3-2.4,3.7c-1,0.8-2.2,0.9-2.9,1.5s-1.2,2.2-1.6,2.3c-0.3,0.2-1.1-1.5-1.5-2.2
		c-0.3-0.6,0.6-1.3,1.1-1.3c0.6-0.1,1.2-0.9,0.9-1.1c-0.3-0.2-2.4-5-2.8-6.4c-0.3-1.5-0.8-7-1.5-8.7s-0.4-5.5-0.2-5.6
		c0.2-0.2,1.7,3.2,2.2,4.3c0.6,1.1,0.8,1.8,1,1.8c0.1,0.1,0.3-0.9,0.3-1.6c0-0.9-0.2-2.1,1.2,0.6c1.4,2.8,2.9,4.1,2.9,5.6
		c-0.1,1.5-0.1,2.8,0,3.8s0.2,2.1,0.2,2.1S825.7,551.3,825.9,551z"/>
	<path class="st1" d="M956,551.9c0.2-0.2,0.7-0.6,1.1-0.6s0.6,0.2,0.7,0.3c0.2,0.2,0.3,0.2,0.4,0.2s0,0.2-0.2,0.3
		c-0.2,0.2-0.3,0.8-0.7,1.1c-0.3,0.3-1.1,2.2-1.8,2.8c-0.7,0.6-1.7,0.8-2.2,1.1c-0.5,0.4-1,1.6-1.2,1.8s-0.8-1.2-1.1-1.6
		c-0.2-0.4,0.4-0.9,0.8-1s1-0.7,0.7-0.9c-0.2-0.2-1.8-3.8-2.1-4.8c-0.3-1.1-0.6-5.2-1.1-6.6c-0.5-1.3-0.3-4.1-0.1-4.2
		c0.2-0.1,1.2,2.4,1.7,3.3c0.4,0.9,0.7,1.4,0.7,1.4s0.2-0.6,0.2-1.3s-0.1-1.5,1,0.4c1.1,2.1,2.2,3.1,2.2,4.2c-0.1,1.1-0.1,2.1,0,2.8
		c0.1,0.8,0.2,1.5,0.2,1.5S955.8,552.1,956,551.9z"/>
	<path class="st1" d="M949.7,438c0.2-0.1,1.1-0.3,1.6-0.2c0.5,0.2,0.7,0.5,0.9,0.8c0.2,0.3,0.3,0.4,0.6,0.4c0.2,0.1-0.1,0.2-0.3,0.3
		c-0.2,0.1-0.6,0.8-1.1,1.1c-0.4,0.3-1.8,2.3-2.9,2.8c-1.1,0.3-2.4,0.1-3,0.3c-0.7,0.3-1.6,1.6-1.9,1.6c-0.3,0.1-0.8-2-1.1-2.7
		c-0.2-0.8,0.7-1,1.3-0.9c0.6,0.2,1.3-0.4,1.1-0.8c-0.3-0.3-1.6-5.8-1.7-7.2c-0.1-1.5,0.3-7,0-8.9s0.5-5.4,0.7-5.5s1.1,3.7,1.5,5
		s0.6,2.1,0.7,2.1c0.1,0.1,0.4-0.7,0.6-1.5c0.2-0.9,0.2-2.1,1.1,1.1s2.2,5.2,1.9,6.4c-0.3,1.4-0.5,2.6-0.6,3.7
		c-0.1,1-0.1,2.1-0.1,2.1S949.3,438,949.7,438z"/>
	<path class="st1" d="M830,429.2c-0.1-0.1-0.2-0.2-0.3-0.3c-0.1-0.2-0.2-0.4-0.6-0.6s-0.9-0.1-1.1-0.1c-0.2,0.1-0.6-0.1-0.6-0.1
		s0.1-0.7,0.2-1.4c0.1-0.7,0.3-1.5,0.6-2.3c0.3-0.9-0.5-2.3-1-4.5c-0.4-2.2-0.6-1.4-0.7-0.9c-0.2,0.5-0.3,1-0.4,0.9
		c-0.1-0.1-0.2-0.6-0.3-1.5c-0.2-0.9-0.6-3.5-0.7-3.5c-0.2,0-0.9,2.2-0.7,3.5s-0.4,4.8-0.4,5.9s0.6,4.7,0.8,5s-0.3,0.6-0.7,0.4
		s-1-0.1-0.9,0.4c0.1,0.4,0.3,1.9,0.6,1.9c0.2,0,0.8-0.8,1.3-0.9s1.3,0.2,2,0.1s1.7-1.3,2.1-1.5c0.3-0.2,0.6-0.6,0.7-0.6
		C829.9,429.4,830.1,429.3,830,429.2z"/>
	<path class="st1" d="M912.7,436.7c0,0,2.4-1.4,3.4-0.9c1.1,0.4,1,1.5,1.4,1.5c0.4,0.1,1,0.4,0.7,0.6s-0.7,0.2-1,0.6
		c-0.2,0.4-1.3,2.5-2.1,3c-0.8,0.6-1.3,0.7-1.1,1.2c0.3,0.5,1.7,3.1,3.1,3.4c1.5,0.3,3,0.6,3.6,2.3s1.1,6.3,1.6,9.3
		c0.6,3,1.1,11.8,1,14.7c-0.2,3-0.1,4-0.7,4.5s-2.9-3.7-3.2-6.5c-0.3-2.8-1-7.7-2.3-9.9c-1.3-2.1-6.9-8.1-8.1-9.3
		c-1.2-1.3-1.6-2.8-1.6-2.8s-1.7,0.9-2.7,1.4c-0.6,0.3-2.4,2.8-2.8,3.8c-0.3,0.9-0.6,1.4-1.1,0.9c-0.5-0.6-1.1-1.4-1.6-2.3
		c-0.4-0.9-1.2-2.8-0.7-3.1c0.5-0.3,1.3-0.6,2.3-1.2c0.9-0.5,1.7-1.5,2.4-2.6c0.7-1,1.1-2.3,1.1-2.5s-1.6-5-1.8-8.7
		c-0.2-3.8-1.2-8.3-1.6-9.4c-0.4-1-4.6-6.1-5.6-8.1c-1.1-2-2.6-4.2-0.5-4s7.8,3.3,9.9,5.2c2.2,1.8,4.2,3.1,4.2,5.5
		c0.1,2.4-0.6,5.7,0,7.9C909.5,433.1,911.3,436.8,912.7,436.7z"/>
	<path class="st1" d="M822.3,596c0,0,1.3-1.5,2-1.6c0.7,0,0.8,0.6,1.1,0.6c0.2,0,0.7,0,0.5,0.2s-0.4,0.3-0.5,0.6s-0.5,1.9-1,2.6
		s-0.7,0.9-0.5,1c0.2,0.2,1.5,1.4,2.4,1.2c1-0.3,2-0.5,2.5,0.4c0.6,0.9,1.5,3.7,2.2,5.3s2.2,7,2.4,8.9c0.2,1.9,0.4,2.6,0.1,3
		s-2.2-1.5-2.9-3.1c-0.7-1.5-1.6-4.5-2.7-5.5c-1.1-0.9-5.4-3-6.3-3.4c-0.9-0.4-1.4-1.3-1.4-1.3s-1,1.1-1.6,1.6
		c-0.3,0.3-1.2,2.6-1.3,3.2c-0.1,0.7-0.2,1-0.6,0.9c-0.4-0.2-0.8-0.6-1.2-1s-1.1-1.4-0.8-1.8c0.2-0.3,0.7-0.8,1.2-1.4
		c0.5-0.6,0.8-1.5,1.2-2.3c0.3-0.9,0.3-1.8,0.3-1.9s-1.6-2.6-2.2-4.9c-0.6-2.3-1.8-4.8-2.1-5.4c-0.3-0.5-3.6-2.5-4.6-3.4
		s-2.1-1.9-0.8-2.4s5.2-0.3,6.9,0.3c1.6,0.4,3,0.7,3.3,2.2s0.3,3.7,1,5C819.9,594.8,821.5,596.5,822.3,596z"/>
	<path class="st1" d="M861.8,575.6c0,0-0.1-2.2-2.4-4.5c-2.4-2.3-6.3-8.2-6.6-9.6c-0.3-1.5-1.6-4-1.6-4.6c-0.2-0.6-0.7,1-0.1,3.2
		c0.7,2.1,1.5,4.5,1.6,5.8c0.2,1.4,1.3,6.1,4,8.2c2.7,2.1,3.9,3.3,3.8,3.8c-0.2,0.5-0.7,1.2-1.3,0.9c-0.6-0.3-2.2-1.4-2.4-0.9
		s0.6,5.5,2.4,6.7c2,1.2,4.2,0.3,4.5-0.1c0.3-0.3-1.4-1-1.1-1.9s1.1-0.3,1.7-0.9c0.6-0.6,2-0.1,2.3,0s-0.2-0.5-0.2-0.5
		s2.9,0.8,4.1,1.1c1.1,0.3,4.2-0.1,5,0.4s7.9,0.5,8.2-0.3c0.2-0.5-1.1-0.3-2.2-0.3s-4.7-0.6-6.1-1.5s-3.3-2.2-4.2-2.5
		c-0.9-0.3-3.6,0.3-4.6,0.3c-1.1,0-1.6-0.1-1.6-0.1s-0.6-1.3-1.1-1.8C863.3,575.9,861.8,575.6,861.8,575.6z"/>
	<path class="st1" d="M853.3,447.5c0,0-0.1-1.2-1.3-2.5c-1.3-1.3-3.5-4.6-3.7-5.3c-0.2-0.9-0.8-2.2-1-2.5c-0.1-0.3-0.4,0.6-0.1,1.8
		c0.3,1.2,0.8,2.5,0.9,3.3s0.7,3.4,2.2,4.6c1.5,1.1,2.2,1.8,2.1,2.1c-0.1,0.3-0.4,0.7-0.7,0.5c-0.3-0.2-1.2-0.8-1.3-0.4
		c-0.1,0.3,0.3,3,1.4,3.7s2.4,0.2,2.4,0c0.2-0.2-0.7-0.6-0.6-1.1c0.2-0.5,0.7-0.2,1-0.5s1.1-0.1,1.2,0c0.2,0.1-0.1-0.3-0.1-0.3
		s1.6,0.4,2.3,0.6c0.7,0.2,2.3,0,2.8,0.3c0.4,0.3,4.4,0.3,4.6-0.2c0.1-0.3-0.6-0.2-1.2-0.2c-0.7,0-2.6-0.3-3.3-0.9
		c-0.7-0.6-1.8-1.2-2.4-1.4c-0.5-0.2-2,0.2-2.6,0.2c-0.7,0-0.9-0.1-0.9-0.1s-0.3-0.8-0.7-1C854.2,447.8,853.3,447.5,853.3,447.5z"/>
	<path class="st1" d="M827.4,478.4c-0.3,0.1-1.4,0.1-1.8-0.1c-0.4-0.2-1-0.4-1.2-0.4c-0.2-0.1-1,0.3-1.3,0.3
		c-0.3,0.1-0.4,0.1-0.4,0.1s-0.2-0.3-0.3-0.4c-0.2-0.1-0.7-0.1-0.7-0.1s-0.1-0.6-0.8-1.1s-2-1.9-2.1-2.3s-0.6-1-0.6-1.2
		c-0.1-0.2-0.2,0.3,0.1,0.9c0.2,0.6,0.5,1.2,0.6,1.5s0.6,1.6,1.3,2.1c0.8,0.4,1.2,0.7,1.2,0.9s-0.2,0.3-0.3,0.3
		c-0.2-0.1-0.7-0.3-0.7-0.1c-0.1,0.2,0.3,1.5,0.9,1.7c0.6,0.2,1.2-0.2,1.3-0.3c0.1-0.1-0.4-0.2-0.3-0.4c0.1-0.3,0.3-0.2,0.4-0.3
		c0.2-0.2,0.6-0.2,0.7-0.2c0.1,0-0.1-0.2-0.1-0.2s0.8,0.1,1.2,0.1c0.3,0.1,1.2-0.3,1.5-0.2s2.3-0.3,2.4-0.6
		C828,478.3,827.7,478.4,827.4,478.4z"/>
	<path class="st1" d="M958.2,472.3c-1-0.3-3.8-1.5-4.8-2.6s-2.4-2.5-3.2-2.8c-0.7-0.4-2.9-0.5-3.8-0.8c-0.8-0.2-1.3-0.4-1.3-0.4
		s-0.3-1.1-0.7-1.7c-0.4-0.5-1.7-1.1-1.7-1.1s0.2-1.8-1.6-4.1c-1.7-2.3-4.3-7.9-4.5-9.2c-0.2-1.3-0.9-3.5-1-4
		c-0.1-0.6-0.7,0.7-0.3,2.6c0.3,1.9,0.7,4,0.8,5.1c0.1,1.1,0.6,5.2,2.5,7.5c2,2.2,2.9,3.4,2.7,3.8c-0.2,0.4-0.7,0.9-1.2,0.4
		c-0.5-0.3-1.7-1.5-1.8-1.2c-0.2,0.3-0.1,4.6,1.5,5.9c1.5,1.4,3.3,1.1,3.6,0.9c0.3-0.2-1.1-1.1-0.7-1.8c0.4-0.7,1-0.1,1.5-0.4
		s1.6,0.3,1.8,0.4c0.3,0.1-0.1-0.4-0.1-0.4s2.3,1.2,3.2,1.7c1,0.5,3.3,0.9,4,1.4c0.7,0.6,6.4,2.1,6.8,1.5
		C960.2,472.6,959.1,472.5,958.2,472.3z"/>
	<path class="st1" d="M902.5,499.1c0,0-2.7-3.6-3.2-6.9c-0.5-3.3-1.5-6.8-2.9-8.2c-1.5-1.5-5.2-5.8-7.7-7.2c-2.4-1.5-2.6-0.3-1.5,1
		c2.4,3,2.7,5.4,3.2,8.1c0.4,2.6,0.9,9.6,3,12.9c2.1,3.3,3.8,5.2,3.8,6.4c0.1,1.3-0.7,1.8-0.7,1.8s-2.4,1.7-3.2,1.8
		c-0.7,0.1-0.8,1.1-0.2,3.7c0.6,2.6,1.6,3.8,3.3,3.4c1.7-0.4,1.6,0.2,1.9-1.8c0.3-1.9-0.2-3.1,0.7-3.7c0.8-0.6,1.4-1.3,2-0.9
		c0.7,0.4,5.7,7.5,8.2,8.1c2.4,0.6,2.2,0,3.6,1.3c1.5,1.3,4.2,6.9,5.1,6.4s-1.1-4.8-2.4-8.2s-3.3-8.2-4.3-8.9
		c-1.1-0.8-5-2.1-5.5-3.9c0,0,0.4-0.9,1.1-1.3c0.7-0.3,1.2-0.2,1.8-0.7c0.6-0.5,1.3-0.3,1.3-0.3s-0.4-0.7-0.8-0.8s-1-2.6-2.7-2.3
		c-1.7,0.2-2.3,0.4-2.8,0.4C903.3,499.5,902.5,499.1,902.5,499.1z"/>
	<path class="st1" d="M770.1,484.3c0,0-1.6-2.2-2-4.3s-0.9-4.2-1.8-5.2c-0.9-0.9-3.3-3.6-4.7-4.5c-1.6-0.9-1.6-0.2-1,0.7
		c1.5,1.8,1.7,3.4,2,5s0.6,6,1.9,8.1c1.3,2,2.4,3.2,2.4,4c0.1,0.9-0.4,1.1-0.4,1.1s-1.6,1-2,1.1s-0.6,0.7-0.2,2.3
		c0.4,1.6,1,2.4,2.1,2.1c1.1-0.3,1,0.1,1.2-1.1s-0.1-1.9,0.4-2.3c0.5-0.3,0.8-0.8,1.3-0.5c0.4,0.3,3.6,4.7,5.1,5.1
		c1.6,0.3,1.4,0,2.3,0.9c0.9,0.9,2.6,4.3,3.2,4s-0.7-3-1.5-5.2c-0.8-2.1-2-5.1-2.7-5.5s-3.1-1.3-3.3-2.4c0,0,0.2-0.6,0.7-0.8
		c0.4-0.2,0.8-0.1,1.1-0.4c0.4-0.3,0.8-0.2,0.8-0.2s-0.2-0.4-0.5-0.4c-0.2-0.1-0.6-1.6-1.7-1.5c-1.1,0.1-1.5,0.3-1.7,0.3
		C770.6,484.6,770.1,484.3,770.1,484.3z"/>
	<path class="st1" d="M875.6,470.8c0,0-0.7-1.8-0.5-4.7c0.2-2.9,0.5-5.5-0.1-7.4s-2.2-6.5-2.8-10.2s-1.1-7-1.6-7.1
		c-0.4-0.2-2.4,7.5-2.1,12.6s0.8,5.9,1,7.4s-0.4,2.7-0.3,5.8c0.1,3.1,0.8,6.4,0.8,7.1c0.1,0.6-0.4,1.4-1,1.9
		c-0.5,0.6-1.8,1.1-2.4,1.5c-0.6,0.3-1.1,0.3-1.1,0.8c0.1,0.5,0.2,1.9,0.7,2.6c0.6,0.7,1.2,0.9,1.7,0.9c0.4,0.1,0.8-2.1,1.3-2.2
		s2.9-0.9,3.3-0.9s1.5,1.4,3.1,0.9s2.1-0.3,3.1,0.2c1,0.4,3.1,2.1,3.3,2.1c0.2-0.1-0.2-1.6-0.7-2.3c-0.7-1-0.9-1.1-1.3-1.9
		s-1.6-2.1-2.1-2c0,0,0.6-1.6,1.2-2.2c0.7-0.6,1.3-1.5,1.7-1.7c0.3-0.1,1-0.1,1.1-0.3c0.1-0.2-1.2-0.6-1.2-0.6s-0.3-1.4-2-1.5
		C877.2,469.3,876.1,470.6,875.6,470.8z"/>
	<path class="st1" d="M935.5,583c0,0-0.7-1.6-0.4-4.2c0.2-2.6,0.4-4.9-0.1-6.4c-0.5-1.6-2-5.8-2.4-9c-0.5-3.3-1-6.2-1.3-6.3
		c-0.3-0.2-2.1,6.6-1.8,11.1c0.3,4.5,0.7,5.2,0.9,6.5c0.2,1.3-0.3,2.3-0.2,5.2c0.1,2.8,0.7,5.8,0.7,6.3c0.1,0.5-0.4,1.3-0.8,1.7
		s-1.6,1-2.1,1.3s-1,0.2-1,0.7c0.1,0.4,0.2,1.7,0.6,2.3s1.1,0.8,1.5,0.9c0.3,0.1,0.7-1.9,1.2-2c0.4-0.1,2.4-0.8,2.9-0.8
		c0.4,0.1,1.3,1.3,2.8,0.8c1.5-0.4,1.9-0.3,2.8,0.2c0.8,0.4,2.7,1.9,2.9,1.8c0.2-0.1-0.2-1.4-0.7-2.1c-0.6-0.9-0.8-1-1.2-1.7
		c-0.4-0.8-1.5-1.8-1.8-1.8c0,0,0.5-1.4,1.1-1.9s1.2-1.4,1.5-1.5s0.8-0.1,1-0.3c0.1-0.2-1.1-0.4-1.1-0.4s-0.3-1.2-1.8-1.4
		C936.9,581.6,935.9,582.7,935.5,583z"/>
	<path class="st1" d="M801.7,476.9c0,0-0.4-0.8-0.4-2.2s0-2.7-0.3-3.4c-0.3-0.8-1.3-2.8-1.7-4.6c-0.4-1.7-0.8-3.2-1-3.3
		c-0.2-0.1-0.8,3.8-0.4,6.1c0.4,2.3,0.7,2.8,0.8,3.4c0.2,0.6-0.1,1.3,0.1,2.8s0.7,3,0.7,3.3c0.1,0.3-0.2,0.8-0.3,1
		c-0.2,0.3-0.8,0.8-1.1,0.9c-0.3,0.2-0.6,0.3-0.5,0.4c0.1,0.2,0.2,0.9,0.4,1.1s0.7,0.3,0.8,0.3c0.2,0,0.3-1.1,0.6-1.2
		c0.2-0.1,1.3-0.8,1.5-0.7c0.2,0,0.7,0.5,1.6,0.1c0.7-0.4,1-0.3,1.5-0.2c0.5,0.2,1.6,0.8,1.6,0.7c0.1-0.1-0.2-0.8-0.4-1
		c-0.3-0.4-0.5-0.4-0.7-0.8c-0.2-0.3-0.8-0.9-1.1-0.8c0,0,0.2-0.9,0.5-1.1c0.3-0.3,0.6-0.9,0.7-1c0.2-0.1,0.4-0.2,0.5-0.2
		c0.1-0.1-0.6-0.2-0.6-0.2s-0.2-0.6-1-0.5C802.5,476,801.9,476.7,801.7,476.9z"/>
	<path class="st1" d="M907.6,592.9c-0.2-0.2-0.3-0.2-0.4-0.3c-0.2-0.2-0.6-0.3-0.7-0.3c0,0,0.1-0.4,0.2-0.8c0.2-0.3,0.2-0.6,0.3-0.7
		s0.2-0.2,0.2-0.2h-0.3c0,0-0.2-0.3-0.6-0.1s-0.7,0.7-0.8,0.8c0,0-0.3-0.3-0.4-1.1s-0.2-1.5-0.4-1.9c-0.2-0.4-1-1.4-1.3-2.3
		c-0.3-0.9-0.7-1.6-0.8-1.6s-0.2,2.2,0.2,3.5c0.4,1.3,0.6,1.4,0.7,1.8c0.1,0.3,0.1,0.8,0.2,1.5c0.2,0.8,0.6,1.5,0.7,1.7
		s-0.1,0.4-0.2,0.6c-0.1,0.2-0.4,0.5-0.6,0.7s-0.3,0.2-0.2,0.3c0.1,0.1,0.2,0.4,0.3,0.6c0.2,0.1,0.4,0.1,0.5,0s0.1-0.7,0.2-0.8
		s0.7-0.6,0.8-0.6c0.1-0.1,0.4,0.2,0.8-0.2c0.4-0.3,0.6-0.3,0.8-0.3c0.2,0,0.9,0.2,1,0.1C908,593.4,907.7,593,907.6,592.9z"/>
	<path class="st1" d="M854.8,520.1c-0.6-0.3-0.7-0.3-1.1-0.8c-0.4-0.3-1.2-0.8-1.6-0.5c0,0,0.1-1.1,0.4-1.7c0.3-0.6,0.6-1.4,0.7-1.5
		c0.2-0.2,0.6-0.3,0.6-0.5c0.1-0.2-0.8,0.1-0.8,0.1s-0.4-0.7-1.5-0.3s-1.6,1.6-1.8,1.9c0,0-0.7-0.9-1-2.7s-0.5-3.5-1.1-4.4
		s-2.2-3.2-3.1-5.2c-0.9-2.1-1.7-3.8-2-3.8c-0.2,0-0.4,5.3,0.6,8.3c1,2.9,1.4,3.3,1.7,4.1s0.2,1.7,0.7,3.5s1.5,3.7,1.6,4
		s-0.1,1-0.3,1.5c-0.2,0.5-0.9,1.3-1.2,1.6c-0.3,0.3-0.7,0.5-0.6,0.9c0.1,0.3,0.4,1.1,0.8,1.4s0.9,0.1,1.1,0s0.2-1.5,0.5-1.8
		s1.6-1.5,1.8-1.5c0.2-0.1,1.1,0.3,2-0.5c0.9-0.9,1.2-0.9,1.9-0.9c0.7-0.1,2.1,0.3,2.3,0.2C855.7,521.2,855.2,520.3,854.8,520.1z"/>
	<path class="st1" d="M886.2,531c0,0-0.5-1-1.1-0.8c-0.7,0.3-1.1,0.6-1.5,0.5s-2-0.5-2.4-2.9c-0.5-2.4,0.2-6.1-1.1-6.9
		c-1.3-0.9-4.9-1.9-9-1.3c-4.1,0.6-4.5,0.4-3.1,1.9c1.3,1.5,3.3,1.9,4.1,1.9c0.7,0,2.2,0.3,2.9,1c0.6,0.8,1,2.6,1.9,5.2
		c1,2.6,2.1,5.4,2,6.3c-0.1,0.9-0.8,1.9-1.6,2.4c-0.8,0.4-1.6,0.7-1.4,1.1c0.2,0.4,1.1,1,1.5,1.5c0.4,0.4,0.9,1.1,1.1,0.7
		c0.2-0.4,0.7-2.1,1.7-2.5s1.5-0.3,3-1.6c1.6-1.4,2.5-3.5,2.7-4c0.2-0.3,0.8,0.3,1.1,0.9c0.3,0.6,0.7,2.1,1.6,3.2s1.2,2.8,1.8,3.1
		c0.7,0.3,0.4-4.1,0.4-6.3c-0.1-2.2-0.2-3.3-0.7-4.3c-0.5-1.1-1-1.3-1.5-0.9C888.2,529.7,886.7,531,886.2,531z"/>
	<path class="st1" d="M819.6,442.6c0,0-0.1-0.2-0.2-0.2c-0.2,0.1-0.2,0.2-0.3,0.1c-0.1,0-0.4-0.1-0.6-0.7c-0.1-0.5,0.1-1.4-0.2-1.5
		c-0.3-0.2-1.1-0.4-2-0.3s-1,0.1-0.7,0.4s0.7,0.4,0.9,0.4s0.5,0.1,0.7,0.2c0.2,0.2,0.2,0.6,0.4,1.1c0.2,0.6,0.4,1.2,0.4,1.4
		s-0.2,0.4-0.3,0.5c-0.2,0.1-0.3,0.2-0.3,0.3c0.1,0.1,0.2,0.2,0.3,0.3c0.1,0.1,0.2,0.3,0.2,0.2c0.1-0.1,0.2-0.4,0.4-0.6
		c0.2-0.1,0.3-0.1,0.7-0.3s0.6-0.8,0.6-0.9c0.1-0.1,0.2,0.1,0.2,0.2c0.1,0.1,0.2,0.4,0.3,0.8c0.2,0.2,0.2,0.6,0.4,0.7
		s0.1-0.9,0.1-1.4c0-0.4-0.1-0.8-0.2-1c-0.1-0.3-0.2-0.3-0.3-0.2C820.1,442.3,819.7,442.6,819.6,442.6z"/>
	<path class="st1" d="M953.7,495.7c0,0-0.2-0.3-0.3-0.3c-0.2,0.1-0.3,0.2-0.4,0.2s-0.7-0.2-0.8-0.9c-0.2-0.8,0.1-2-0.3-2.2
		s-1.6-0.6-2.9-0.4c-1.3,0.2-1.5,0.2-1,0.6c0.4,0.4,1.1,0.6,1.3,0.6c0.2,0,0.7,0.1,0.9,0.3c0.2,0.3,0.3,0.9,0.6,1.6
		c0.3,0.9,0.7,1.8,0.7,2.1s-0.2,0.6-0.6,0.8c-0.2,0.2-0.5,0.2-0.4,0.3c0.1,0.2,0.3,0.3,0.4,0.4c0.1,0.2,0.3,0.3,0.3,0.2
		c0.1-0.2,0.2-0.7,0.6-0.8c0.3-0.2,0.5-0.1,1-0.5s0.8-1.1,0.9-1.3c0.1-0.1,0.2,0.1,0.3,0.3c0.1,0.2,0.2,0.7,0.6,1s0.4,0.9,0.6,1
		s0.2-1.4,0.1-2.1c0-0.8-0.1-1-0.2-1.4c-0.2-0.3-0.3-0.4-0.4-0.3C954.4,495.2,953.9,495.6,953.7,495.7z"/>
</g>
</svg>
